<?xml version="1.0" encoding="UTF-8"?>
<svg id="Capa_2" data-name="Capa 2" xmlns="http://www.w3.org/2000/svg" viewBox="0 0 623.8 723.8">
  <defs>
    <style>
      .cls-1 {
        fill: #2746f9;
      }

      .cls-1, .cls-2 {
        stroke-width: 0px;
      }

      .cls-2 {
        fill: #fff;
      }
    </style>
  </defs>
  <g id="TEXTS">
    <path class="cls-2" d="m79.57,8.14l-55.24,8.73c-2.1.33-3.45,2.4-2.91,4.45l14.14,54.11,13.1,50.11c.79,3.01,4.77,3.66,6.48,1.06l15.37-23.49c1.15-1.76,3.55-2.16,5.21-.87,18.3,14.25,36.6,28.51,54.93,42.72,25.3,19.62,53.17,37.67,76.43,59.65,29.27,27.67,45.15,72.48,18.11,107.57-11.51,14.95-27,23.65-46.45,26.1-19.45,2.46-36.65-2.12-51.58-13.73-14.93-11.61-23.66-27.39-26.18-47.34-.93-7.39-.71-14.88.68-22.5,1.38-7.61,3.19-13.99,5.42-19.15,2.23-5.15,4.95-10.14,8.16-14.95,3.21-4.82,5.49-8,6.83-9.55l.04-.05c1.66-1.91,1.33-4.84-.72-6.33l-57.38-41.96c-1.41-1.03-3.35-.9-4.61.31l-3.02,2.91c-3.55,3.74-7.66,9.39-12.33,16.96-4.67,7.57-9.21,16.23-13.6,26-4.39,9.77-7.69,21.84-9.9,36.2-2.21,14.36-2.35,29.13-.44,44.29,5.59,44.31,25.04,79.74,58.34,106.27,33.3,26.53,70.45,37.21,111.47,32.03,41.02-5.18,74.36-24.75,100.01-58.73,25.66-33.98,35.69-73.12,30.1-117.43-10.12-80.16-80.73-123.72-139.47-168.31-3.45-2.62-38.56-29.33-62.25-47.12-1.51-1.14-1.88-3.25-.84-4.83l16.83-25.74c1.7-2.61-.49-6-3.57-5.51l-51.16,8.09Z"/>
    <g>
      <path class="cls-1" d="m529.73,46.88v50.87c13.87-.21,25.05-11.51,25.05-25.43s-11.18-25.22-25.05-25.43Z"/>
      <path class="cls-1" d="m564.6,46.88v50.87c13.87-.21,25.05-11.51,25.05-25.43s-11.18-25.22-25.05-25.43Z"/>
      <path class="cls-1" d="m598.76,46.88v50.87c13.87-.21,25.05-11.51,25.05-25.43s-11.18-25.22-25.05-25.43Z"/>
    </g>
    <g>
      <path class="cls-1" d="m94.08,672.93v50.87c-13.87-.21-25.05-11.51-25.05-25.43s11.18-25.22,25.05-25.43Z"/>
      <path class="cls-1" d="m59.2,672.93v50.87c-13.87-.21-25.05-11.51-25.05-25.43s11.18-25.22,25.05-25.43Z"/>
      <path class="cls-1" d="m25.05,672.93v50.87c-13.87-.21-25.05-11.51-25.05-25.43s11.18-25.22,25.05-25.43Z"/>
    </g>
  </g>
</svg>