<?xml version="1.0" encoding="UTF-8"?>
<svg id="Capa_2" data-name="Capa 2" xmlns="http://www.w3.org/2000/svg" viewBox="0 0 196.51 58.3">
  <defs>
    <style>
      .cls-1 {
        fill: #2746f9;
      }

      .cls-1, .cls-2, .cls-3 {
        stroke-width: 0px;
      }

      .cls-2 {
        fill: #fff;
      }

      .cls-3 {
        fill: #1e2655;
      }
    </style>
  </defs>
  <g id="TEXTS">
    <g>
      <rect class="cls-1" width="58.3" height="58.3" rx="11.51" ry="11.51"/>
      <path class="cls-2" d="m49.65,23.7l-.17-5.35c0-.2-.19-.36-.39-.33l-5.31.69-4.91.64c-.3.04-.4.41-.18.6l2.05,1.74c.15.13.16.36.02.51-1.57,1.57-3.14,3.13-4.71,4.7-2.17,2.17-4.21,4.6-6.58,6.54-2.98,2.45-7.42,3.42-10.43.43-1.28-1.27-1.92-2.85-1.92-4.72s.64-3.45,1.92-4.73c1.28-1.28,2.88-1.92,4.81-1.92.71,0,1.42.11,2.13.33.71.22,1.29.47,1.75.74.46.27.9.59,1.32.95.42.36.69.62.82.76h0c.16.18.44.19.61.01l4.67-4.94c.11-.12.13-.31.03-.44l-.24-.32c-.31-.38-.8-.84-1.46-1.37-.66-.53-1.43-1.07-2.31-1.6-.87-.53-1.98-.99-3.32-1.37-1.34-.38-2.74-.57-4.2-.57-4.27,0-7.87,1.42-10.79,4.26-2.92,2.84-4.38,6.24-4.38,10.2s1.46,7.35,4.38,10.2c2.92,2.84,6.51,4.26,10.79,4.26,7.73,0,12.71-6.18,17.65-11.22.29-.3,3.25-3.31,5.22-5.34.13-.13.33-.14.47-.02l2.24,1.91c.23.19.58.03.57-.27l-.15-4.95Z"/>
      <g>
        <path class="cls-3" d="m96.34,4.67c1.04.3,1.89.66,2.55,1.09.67.43,1.25.85,1.77,1.28.51.43.88.79,1.1,1.08l.35.46-2.97,2.97c-.06-.08-.14-.2-.25-.34-.11-.15-.35-.4-.72-.75s-.77-.67-1.21-.94c-.44-.27-1.01-.52-1.72-.75s-1.44-.34-2.18-.34c-2.04,0-3.75.69-5.12,2.06-1.37,1.37-2.06,3.08-2.06,5.12s.69,3.75,2.06,5.12,3.08,2.06,5.12,2.06c.79,0,1.55-.11,2.28-.33.73-.22,1.33-.48,1.81-.78.48-.3.9-.6,1.26-.91.37-.3.63-.57.79-.79l.24-.32,2.82,2.97c-.08.12-.21.28-.37.48-.17.2-.54.55-1.11,1.05-.57.5-1.19.94-1.84,1.33-.66.38-1.51.73-2.57,1.04s-2.16.47-3.3.47c-3.33,0-6.14-1.11-8.43-3.34s-3.44-4.91-3.44-8.05,1.15-5.82,3.44-8.04,5.1-3.34,8.43-3.34c1.15,0,2.24.15,3.28.45Z"/>
        <path class="cls-3" d="m113.05,24.97c-.12.14-.29.32-.51.53-.22.21-.69.48-1.42.82s-1.49.51-2.29.51c-1.52,0-2.76-.42-3.72-1.27-.95-.85-1.43-1.88-1.43-3.09s.4-2.29,1.2-3.12c.8-.83,1.91-1.38,3.32-1.63l4.85-.87c0-.64-.23-1.16-.7-1.57s-1.12-.61-1.95-.61c-.69,0-1.32.13-1.89.39s-.97.53-1.2.8l-.35.37-2.33-2.33c.06-.08.14-.19.25-.33.11-.14.35-.37.72-.71s.77-.63,1.21-.89c.44-.26,1.01-.5,1.72-.72.71-.22,1.44-.33,2.18-.33,1.93,0,3.5.58,4.72,1.73,1.22,1.15,1.83,2.6,1.83,4.35v9.52h-4.21v-1.55Zm-.85-2.48c.56-.6.85-1.44.85-2.52v-.47l-3.43.62c-1.15.18-1.72.76-1.72,1.72,0,1.04.68,1.55,2.03,1.55.95,0,1.71-.3,2.28-.91Z"/>
        <path class="cls-3" d="m129.67,15.29c-.31-.1-.78-.16-1.4-.17-1.11,0-1.98.35-2.63,1.05-.64.7-.97,1.71-.97,3.02v7.33h-4.21v-15.3h4.21v1.87c.12-.14.29-.33.52-.56s.71-.53,1.47-.91c.76-.38,1.55-.56,2.38-.56h.62v4.22Z"/>
        <path class="cls-3" d="m144.14,24.44c-1.61,1.59-3.51,2.38-5.69,2.38s-4.08-.79-5.7-2.38c-1.62-1.59-2.42-3.45-2.42-5.57s.81-3.98,2.42-5.57c1.61-1.59,3.51-2.38,5.7-2.38s4.08.79,5.69,2.38c1.61,1.59,2.41,3.45,2.41,5.57s-.81,3.98-2.41,5.57Zm-8.33-2.68c.74.78,1.62,1.17,2.64,1.17s1.89-.39,2.64-1.17,1.11-1.74,1.11-2.88-.37-2.1-1.11-2.89-1.62-1.17-2.64-1.17-1.89.39-2.64,1.17c-.74.78-1.11,1.74-1.11,2.89s.37,2.1,1.11,2.88Z"/>
        <path class="cls-3" d="m153.18,26.52h-4.22V4.68h4.22v21.85Z"/>
        <path class="cls-3" d="m160.47,8.56c-.45.43-1.06.64-1.83.64-.71,0-1.28-.21-1.7-.64-.42-.43-.63-.99-.63-1.7s.21-1.27.64-1.7c.43-.43.99-.64,1.69-.64.77,0,1.38.21,1.83.64.45.43.67.99.67,1.7s-.22,1.27-.67,1.7Zm.37,17.96h-4.22v-15.3h4.22v15.3Z"/>
        <path class="cls-3" d="m168.39,13.1c.12-.16.29-.36.52-.6s.71-.56,1.47-.97c.76-.41,1.55-.61,2.38-.61,1.75,0,3.17.6,4.27,1.81,1.1,1.21,1.65,2.84,1.65,4.89v8.9h-4.21v-8.43c0-.93-.28-1.69-.83-2.26-.55-.57-1.27-.86-2.14-.86-.95,0-1.71.31-2.28.94s-.85,1.51-.85,2.66v7.95h-4.21v-15.3h4.21v1.87Z"/>
        <path class="cls-3" d="m185.28,20.28c.16.83.6,1.54,1.33,2.11.72.57,1.63.86,2.73.86.79,0,1.53-.15,2.2-.46.68-.31,1.15-.62,1.42-.94l.44-.47,2.18,2.8-.28.28c-.13.13-.4.34-.82.65s-.86.58-1.33.82c-.47.24-1.07.45-1.82.63s-1.52.27-2.31.27c-2.24,0-4.16-.78-5.74-2.34-1.58-1.56-2.38-3.43-2.38-5.61s.78-4.06,2.35-5.61,3.44-2.34,5.62-2.34,4,.73,5.45,2.19c1.45,1.46,2.18,3.28,2.18,5.46l-.15,1.71h-11.08Zm1.32-4.98c-.62.52-1.06,1.19-1.32,2.03h7.02c-.16-.81-.55-1.48-1.17-2.01-.61-.53-1.37-.79-2.26-.79s-1.65.26-2.28.78Z"/>
        <path class="cls-3" d="m90.86,43.17c-.74-.45-1.64-.82-2.7-1.12-1.06-.3-2.12-.65-3.17-1.06-1.05-.41-1.95-1.08-2.69-2.01-.74-.93-1.11-2.12-1.11-3.55,0-1.77.71-3.28,2.13-4.53,1.42-1.25,3.26-1.87,5.52-1.87.89,0,1.76.1,2.59.31.83.21,1.52.45,2.05.73.53.28,1,.56,1.4.85s.69.54.86.75l.27.3-2.8,2.97c-.12-.14-.29-.32-.51-.53-.22-.21-.68-.48-1.38-.83s-1.42-.52-2.16-.52c-.89,0-1.61.23-2.16.69-.54.46-.81,1.01-.81,1.66,0,.73.37,1.32,1.1,1.76.74.44,1.63.82,2.68,1.12,1.05.3,2.11.66,3.17,1.07,1.06.41,1.96,1.08,2.7,2.01.74.93,1.11,2.12,1.11,3.55,0,2.02-.73,3.67-2.2,4.95-1.47,1.28-3.49,1.92-6.07,1.92-1.02,0-2-.12-2.95-.37-.95-.25-1.73-.55-2.35-.89s-1.16-.7-1.62-1.05c-.47-.36-.8-.65-1.01-.9l-.35-.38,2.82-2.8c.14.16.34.37.6.63s.84.61,1.73,1.04c.89.44,1.83.65,2.8.65,1.13,0,2.01-.26,2.64-.79s.95-1.2.95-2.01c0-.73-.37-1.32-1.1-1.77Z"/>
        <path class="cls-3" d="m107.91,49.78c-.12.14-.29.32-.51.53-.22.21-.69.48-1.42.82s-1.49.51-2.29.51c-1.52,0-2.76-.42-3.72-1.27-.95-.85-1.43-1.88-1.43-3.09s.4-2.29,1.2-3.12c.8-.83,1.91-1.38,3.32-1.63l4.85-.87c0-.64-.23-1.16-.7-1.57s-1.12-.61-1.95-.61c-.69,0-1.32.13-1.89.39s-.97.53-1.2.8l-.35.37-2.33-2.33c.06-.08.14-.19.25-.33.11-.14.35-.37.72-.71s.77-.63,1.21-.89c.44-.26,1.01-.5,1.72-.72.71-.22,1.44-.33,2.18-.33,1.93,0,3.5.58,4.72,1.73,1.22,1.15,1.83,2.6,1.83,4.35v9.52h-4.21v-1.55Zm-.85-2.48c.56-.6.85-1.44.85-2.52v-.47l-3.43.62c-1.15.18-1.72.76-1.72,1.72,0,1.04.68,1.55,2.03,1.55.95,0,1.71-.3,2.28-.91Z"/>
        <path class="cls-3" d="m124.19,36.28c.76.37,1.29.72,1.61,1.07l.47.56v-8.43h4.21v21.85h-4.21v-1.87c-.04.06-.1.14-.19.24s-.27.27-.55.52-.58.47-.91.67c-.33.2-.75.37-1.26.53-.52.15-1.06.23-1.62.23-1.98,0-3.7-.77-5.16-2.31-1.46-1.54-2.19-3.42-2.19-5.64s.73-4.11,2.19-5.64c1.46-1.54,3.18-2.31,5.16-2.31.87,0,1.69.18,2.45.55Zm.98,10.44c.73-.79,1.1-1.8,1.1-3.03s-.37-2.24-1.1-3.02c-.73-.79-1.62-1.18-2.65-1.18s-1.92.39-2.65,1.18c-.73.79-1.1,1.8-1.1,3.02s.37,2.24,1.1,3.03,1.62,1.19,2.65,1.19,1.92-.4,2.65-1.19Z"/>
        <path class="cls-3" d="m142.19,49.78c-.12.14-.29.32-.51.53-.22.21-.69.48-1.42.82s-1.49.51-2.29.51c-1.52,0-2.76-.42-3.72-1.27-.95-.85-1.43-1.88-1.43-3.09s.4-2.29,1.2-3.12c.8-.83,1.91-1.38,3.32-1.63l4.85-.87c0-.64-.23-1.16-.7-1.57s-1.12-.61-1.95-.61c-.69,0-1.32.13-1.89.39s-.97.53-1.2.8l-.35.37-2.33-2.33c.06-.08.14-.19.25-.33.11-.14.35-.37.72-.71s.77-.63,1.21-.89c.44-.26,1.01-.5,1.72-.72.71-.22,1.44-.33,2.18-.33,1.93,0,3.5.58,4.72,1.73,1.22,1.15,1.83,2.6,1.83,4.35v9.52h-4.21v-1.55Zm-.85-2.48c.56-.6.85-1.44.85-2.52v-.47l-3.43.62c-1.15.18-1.72.76-1.72,1.72,0,1.04.68,1.55,2.03,1.55.95,0,1.71-.3,2.28-.91Z"/>
      </g>
    </g>
  </g>
</svg>