<?xml version="1.0" encoding="UTF-8"?>
<svg id="Capa_2" data-name="Capa 2" xmlns="http://www.w3.org/2000/svg" viewBox="0 0 404.21 164.16">
  <defs>
    <style>
      .cls-1 {
        fill: #fff;
        stroke-width: 0px;
      }
    </style>
  </defs>
  <g id="TEXTS">
    <g>
      <path class="cls-1" d="m21.02,33.33c2.26,2.21,5.1,3.31,8.5,3.31,1.3,0,2.6-.18,3.89-.53s2.38-.81,3.26-1.36c.88-.55,1.66-1.1,2.33-1.64s1.2-.99,1.57-1.34l.46-.53,8.94,9.47c-.18.27-.45.61-.81,1.04-.36.43-1.2,1.19-2.5,2.29-1.3,1.09-2.69,2.06-4.16,2.9-1.47.84-3.42,1.59-5.85,2.27-2.43.67-4.92,1.01-7.49,1.01-7.55,0-13.91-2.47-19.06-7.4-5.16-4.94-7.73-10.84-7.73-17.71s2.58-12.77,7.73-17.71C15.28,2.47,21.63,0,29.18,0c2.58,0,5.06.33,7.42.99,2.36.66,4.32,1.46,5.86,2.38s2.9,1.86,4.08,2.78c1.17.93,2.03,1.72,2.58,2.38l.73.96-9.14,9.51c-.13-.13-.31-.33-.55-.58-.23-.25-.72-.7-1.46-1.33-.74-.63-1.52-1.18-2.33-1.66-.82-.47-1.85-.91-3.1-1.29s-2.5-.58-3.76-.58c-3.4,0-6.23,1.11-8.5,3.33-2.26,2.22-3.4,4.96-3.4,8.22s1.13,5.99,3.4,8.2Z"/>
      <path class="cls-1" d="m83.5,44.69c-3.67,3.47-8.17,5.2-13.5,5.2s-9.83-1.73-13.5-5.2c-3.67-3.47-5.5-7.62-5.5-12.46s1.83-8.98,5.5-12.44c3.67-3.46,8.17-5.18,13.5-5.18s9.83,1.73,13.5,5.18c3.67,3.46,5.5,7.6,5.5,12.44s-1.83,8.99-5.5,12.46Zm-16.89-8.78c.91.95,2.04,1.42,3.4,1.42s2.49-.47,3.4-1.42c.91-.95,1.36-2.17,1.36-3.66s-.45-2.71-1.36-3.66c-.91-.95-2.04-1.42-3.4-1.42s-2.49.47-3.4,1.42c-.91.95-1.36,2.17-1.36,3.66s.45,2.71,1.36,3.66Z"/>
      <path class="cls-1" d="m106.61,19.68c.22-.35.56-.79,1.01-1.31.45-.52,1.47-1.22,3.06-2.1,1.59-.88,3.28-1.33,5.07-1.33,3.49,0,6.34,1.24,8.56,3.73,2.22,2.48,3.33,5.88,3.33,10.19v20.01h-13.58v-16.96c0-1.17-.35-2.14-1.04-2.92-.7-.77-1.54-1.16-2.53-1.16s-1.89.49-2.68,1.46c-.79.97-1.19,2.19-1.19,3.64v15.93h-13.58V15.6h13.58v4.08Z"/>
      <path class="cls-1" d="m137.43,6.46h11.89v9.51h6.76v11.53h-6.76v6.43c0,.99.3,1.81.91,2.45.61.64,1.43.96,2.47.96.6,0,1.18-.05,1.74-.17s.98-.24,1.24-.4l.4-.13v11.56c-2.03.91-4.52,1.35-7.45,1.32-4.11,0-7.28-1.19-9.52-3.56-2.24-2.37-3.36-5.81-3.36-10.32v-8.15h-4.74v-11.53h2.02c1.17,0,2.2-.44,3.08-1.33s1.33-1.91,1.33-3.08v-5.1Z"/>
      <path class="cls-1" d="m177.44,48.86v-3.74c-.18.31-.48.72-.91,1.23s-1.4,1.17-2.92,1.97c-1.51.81-3.17,1.21-4.99,1.21-2.72,0-5.04-.94-6.96-2.82-1.92-1.88-2.88-4.1-2.88-6.66,0-5.34,3.51-8.86,10.53-10.53l8.48-2.02c0-.73-.36-1.36-1.09-1.9-.73-.54-1.72-.81-2.98-.81-1.08,0-2.17.26-3.26.78-1.09.52-1.88,1.03-2.37,1.54l-.83.73-6.43-6.79c.13-.18.32-.41.56-.7.24-.29.82-.79,1.72-1.52.91-.73,1.88-1.38,2.92-1.94,1.04-.56,2.41-1.08,4.11-1.56s3.46-.71,5.27-.71c4.66,0,8.42,1.3,11.3,3.89,2.87,2.59,4.31,5.81,4.31,9.66v20.7h-13.58Zm-1.36-48.86h14.28l-8.48,11.56h-11.89l6.1-11.56Zm.63,38.49c.73-.82,1.09-1.89,1.09-3.21v-.99l-3.74.99c-1.35.35-2.02,1.15-2.02,2.38,0,1.37.67,2.05,2.02,2.05,1.04,0,1.92-.41,2.65-1.23Z"/>
      <path class="cls-1" d="m200.55,19.79c3.67-3.46,8.17-5.18,13.52-5.18,1.9,0,3.7.25,5.42.75s3.12,1.09,4.24,1.79c1.12.7,2.09,1.39,2.92,2.07s1.43,1.27,1.81,1.76l.53.76-8.15,8.15c-.13-.22-.34-.5-.63-.84-.29-.34-.94-.8-1.95-1.38s-2.08-.86-3.18-.86c-1.68,0-3.06.52-4.14,1.57-1.08,1.05-1.62,2.34-1.62,3.88s.55,2.82,1.64,3.86c1.09,1.04,2.47,1.56,4.12,1.56,1.08,0,2.12-.26,3.1-.78.98-.52,1.67-1.03,2.07-1.54l.6-.73,8.15,8.15c-.13.18-.32.43-.56.75-.24.32-.82.89-1.72,1.72-.91.83-1.89,1.55-2.96,2.17-1.07.62-2.47,1.19-4.21,1.71-1.73.52-3.55.78-5.45.78-5.34,0-9.85-1.73-13.52-5.2-3.67-3.47-5.5-7.62-5.5-12.46s1.83-8.98,5.5-12.44Z"/>
      <path class="cls-1" d="m236.08,6.46h11.89v9.51h6.76v11.53h-6.76v6.43c0,.99.3,1.81.91,2.45.61.64,1.43.96,2.47.96.6,0,1.18-.05,1.74-.17.56-.11.98-.24,1.24-.4l.4-.13v11.56c-2.03.91-4.52,1.35-7.45,1.32-4.11,0-7.28-1.19-9.52-3.56-2.24-2.37-3.36-5.81-3.36-10.32v-8.15h-4.74v-11.53h2.02c1.17,0,2.2-.44,3.08-1.33.88-.88,1.33-1.91,1.33-3.08v-5.1Z"/>
      <path class="cls-1" d="m276.08,48.86v-3.74c-.18.31-.48.72-.91,1.23s-1.4,1.17-2.92,1.97c-1.51.81-3.17,1.21-4.99,1.21-2.72,0-5.04-.94-6.96-2.82-1.92-1.88-2.88-4.1-2.88-6.66,0-5.34,3.51-8.86,10.53-10.53l8.48-2.02c0-.73-.36-1.36-1.09-1.9s-1.72-.81-2.98-.81c-1.08,0-2.17.26-3.26.78-1.09.52-1.88,1.03-2.37,1.54l-.83.73-6.43-6.79c.13-.18.32-.41.56-.7s.82-.79,1.72-1.52,1.88-1.38,2.92-1.94c1.04-.56,2.41-1.08,4.11-1.56,1.7-.47,3.46-.71,5.27-.71,4.66,0,8.43,1.3,11.3,3.89,2.87,2.59,4.31,5.81,4.31,9.66v20.7h-13.58Zm-.73-10.37c.73-.82,1.09-1.89,1.09-3.21v-.99l-3.74.99c-1.35.35-2.02,1.15-2.02,2.38,0,1.37.67,2.05,2.02,2.05,1.04,0,1.92-.41,2.65-1.23Z"/>
      <path class="cls-1" d="m308.97,19.68c.22-.35.56-.79,1.01-1.31.45-.52,1.47-1.22,3.06-2.1,1.59-.88,3.28-1.33,5.07-1.33,3.49,0,6.34,1.24,8.56,3.73,2.22,2.48,3.33,5.88,3.33,10.19v20.01h-13.58v-16.96c0-1.17-.35-2.14-1.04-2.92-.7-.77-1.54-1.16-2.53-1.16s-1.89.49-2.68,1.46c-.79.97-1.19,2.19-1.19,3.64v15.93h-13.58V15.6h13.58v4.08Z"/>
      <path class="cls-1" d="m366.53,44.69c-3.67,3.47-8.17,5.2-13.5,5.2s-9.83-1.73-13.5-5.2c-3.67-3.47-5.5-7.62-5.5-12.46s1.83-8.98,5.5-12.44c3.67-3.46,8.17-5.18,13.5-5.18s9.83,1.73,13.5,5.18c3.67,3.46,5.5,7.6,5.5,12.44s-1.83,8.99-5.5,12.46Zm-16.89-8.78c.91.95,2.04,1.42,3.4,1.42s2.49-.47,3.4-1.42c.91-.95,1.36-2.17,1.36-3.66s-.45-2.71-1.36-3.66c-.91-.95-2.04-1.42-3.4-1.42s-2.49.47-3.4,1.42c-.91.95-1.36,2.17-1.36,3.66s.45,2.71,1.36,3.66Z"/>
      <path class="cls-1" d="m397.09,26.8c-1.13-1.13-2.36-1.69-3.71-1.69-.77,0-1.42.18-1.94.55-.52.36-.78.75-.78,1.14,0,.44.46.87,1.39,1.29s2.06.87,3.4,1.34,2.67,1.05,3.99,1.72,2.45,1.69,3.38,3.05c.93,1.36,1.39,2.96,1.39,4.82,0,2.89-1.38,5.43-4.14,7.6-2.76,2.18-6.46,3.26-11.1,3.26-2.08,0-4.06-.24-5.95-.71-1.89-.47-3.41-1.04-4.55-1.71-1.15-.66-2.16-1.32-3.05-1.97-.88-.65-1.5-1.21-1.85-1.67l-.56-.73,6.13-6.46c.18.22.46.5.84.84.39.34,1.11.8,2.17,1.38,1.06.57,2.09.86,3.08.86.82,0,1.47-.21,1.97-.61.5-.41.75-.89.75-1.44,0-.44-.46-.87-1.39-1.28-.93-.41-2.06-.84-3.4-1.29-1.34-.45-2.67-1.02-4.01-1.71-1.34-.69-2.47-1.71-3.4-3.06-.93-1.36-1.39-2.99-1.39-4.89,0-2.8,1.38-5.31,4.14-7.52,2.76-2.21,6.36-3.31,10.8-3.31,1.85,0,3.59.2,5.22.61,1.62.41,2.94.89,3.96,1.46s1.9,1.12,2.65,1.66,1.28,1.01,1.59,1.41l.5.63-6.13,6.43Z"/>
    </g>
    <g>
      <g id="TEXTS-2" data-name="TEXTS">
        <path class="cls-1" d="m41.64,80.87C18.66,80.87,0,99.53,0,122.52s18.66,41.64,41.64,41.64,41.64-18.66,41.64-41.64-18.63-41.64-41.64-41.64Zm9.99,41.64h-6.91v23.23h-9.29v-23.23h-4.65v-9.29h4.6v-4.19c0-3.8,1.81-9.75,9.77-9.75h7.17v7.99h-5.22c-.84,0-2.05.43-2.05,2.24v3.71h7.39l-.84,9.29h.02Z"/>
      </g>
      <g id="TEXTS-3" data-name="TEXTS">
        <g>
          <path class="cls-1" d="m164.12,104.73h-25.11c-2.98,0-5.42,2.43-5.42,5.42v24.72c0,2.98,2.43,5.42,5.42,5.42h25.11c2.98,0,5.42-2.43,5.42-5.42v-24.72c0-2.98-2.43-5.42-5.42-5.42Zm-12.54,30.38c-6.93,0-12.59-5.63-12.59-12.59s5.66-12.59,12.59-12.59,12.59,5.66,12.59,12.59-5.66,12.59-12.59,12.59Z"/>
          <path class="cls-1" d="m151.56,112.99c-5.25,0-9.53,4.28-9.53,9.53s4.28,9.53,9.53,9.53,9.53-4.28,9.53-9.53-4.28-9.53-9.53-9.53Z"/>
          <path class="cls-1" d="m151.56,80.87c-22.99,0-41.64,18.66-41.64,41.64s18.66,41.64,41.64,41.64,41.64-18.66,41.64-41.64-18.63-41.64-41.64-41.64Zm21.09,54.02c0,4.72-3.83,8.55-8.55,8.55h-25.11c-4.72,0-8.55-3.83-8.55-8.55v-24.72c0-4.72,3.83-8.55,8.55-8.55h25.11c4.72,0,8.55,3.83,8.55,8.55v24.72Z"/>
        </g>
      </g>
      <g id="TEXTS-4" data-name="TEXTS">
        <path class="cls-1" d="m261.67,80.87c-22.99,0-41.64,18.66-41.64,41.64s18.66,41.64,41.64,41.64,41.64-18.66,41.64-41.64-18.63-41.64-41.64-41.64Zm17.79,32.74c0,.39.02.77.02,1.16,0,1.78-.22,3.61-.63,5.42-1.16,5.15-3.95,10.18-8.23,13.94-4.26,3.71-9.99,6.16-17.07,6.16-5.15,0-9.94-1.49-13.96-4.02.72.07,1.44.12,2.17.12,4.21,0,8.09-1.4,11.19-3.76.05-.02,0-.1-.02-.1-3.9-.12-7.15-2.67-8.33-6.14,0-.05,0-.07.05-.07.53.1,1.08.14,1.64.14.82,0,1.64-.12,2.41-.31-3.08-.6-5.54-2.74-6.69-5.54-.46-1.13-.6-2.89-.63-3.27,0-.05.05-.05.07-.05,1.16.63,2.48,1.01,3.85,1.08.05,0,.07-.07.02-.1-2.36-1.61-3.9-4.31-3.9-7.37,0-1.61.43-3.13,1.2-4.45,0-.02.07-.02.07,0,4.5,5.39,11.19,8.95,18.73,9.32-.14-.65-.24-1.35-.24-2.05,0-4.96,4.09-8.98,9.1-8.98,2.62,0,5.01,1.08,6.64,2.84,1.95-.39,3.78-1.06,5.46-2,.12-.07.24.05.19.17-.72,1.95-2.12,3.56-3.88,4.6,1.69-.19,3.27-.6,4.79-1.23.12-.05.24.1.17.22-1.18,1.64-2.62,3.08-4.26,4.24l.05.02Z"/>
      </g>
    </g>
  </g>
</svg>