<?xml version="1.0" encoding="UTF-8"?>
<svg id="Capa_2" data-name="Capa 2" xmlns="http://www.w3.org/2000/svg" viewBox="0 0 1105.53 1035.25">
  <defs>
    <style>
      .cls-1 {
        fill: #2746f9;
      }

      .cls-1, .cls-2 {
        stroke-width: 0px;
      }

      .cls-2 {
        fill: #fff;
      }
    </style>
  </defs>
  <g id="TEXTS">
    <path class="cls-1" d="m35.14-35.14h1035.25v929.91c0,96.93-78.69,175.62-175.62,175.62H35.14V-35.14h0Z" transform="translate(35.14 1070.39) rotate(-90)"/>
    <path class="cls-2" d="m338.7,212.4h158.48v227.29c0,40.27-32.7,72.97-72.97,72.97h-85.51c-40.27,0-72.97-32.7-72.97-72.97v-154.32c0-40.27,32.7-72.97,72.97-72.97Z" transform="translate(18.93 743.97) rotate(-90)"/>
    <path class="cls-2" d="m338.7,480.66h158.48v227.29c0,40.27-32.7,72.97-72.97,72.97h-85.51c-40.27,0-72.97-32.7-72.97-72.97v-154.32c0-40.27,32.7-72.97,72.97-72.97Z" transform="translate(-249.33 1012.23) rotate(-90)"/>
    <path class="cls-2" d="m698.73,480.66h158.48v227.29c0,40.27-32.7,72.97-72.97,72.97h-85.51c-40.27,0-72.97-32.7-72.97-72.97v-154.32c0-40.27,32.7-72.97,72.97-72.97Z" transform="translate(110.7 1372.27) rotate(-90)"/>
    <path class="cls-2" d="m685.93,212.4h158.48v227.29c0,40.27-32.7,72.97-72.97,72.97h-85.51c-40.27,0-72.97-32.7-72.97-72.97v-154.32c0-40.27,32.7-72.97,72.97-72.97Z" transform="translate(366.16 1091.21) rotate(-90)"/>
  </g>
</svg>