<?xml version="1.0" encoding="UTF-8"?>
<svg id="Capa_2" data-name="Capa 2" xmlns="http://www.w3.org/2000/svg" viewBox="0 0 34.6 34.6">
  <defs>
    <style>
      .cls-1 {
        fill: #1e2655;
        stroke-width: 0px;
      }
    </style>
  </defs>
  <g id="TEXTS">
    <g>
      <path class="cls-1" d="m22.52,9.91h-10.43c-1.24,0-2.25,1.01-2.25,2.25v10.27c0,1.24,1.01,2.25,2.25,2.25h10.43c1.24,0,2.25-1.01,2.25-2.25v-10.27c0-1.24-1.01-2.25-2.25-2.25Zm-5.21,12.62c-2.88,0-5.23-2.34-5.23-5.23s2.35-5.23,5.23-5.23,5.23,2.35,5.23,5.23-2.35,5.23-5.23,5.23Z"/>
      <path class="cls-1" d="m17.3,13.34c-2.18,0-3.96,1.78-3.96,3.96s1.78,3.96,3.96,3.96,3.96-1.78,3.96-3.96-1.78-3.96-3.96-3.96Z"/>
      <path class="cls-1" d="m17.3,0C7.75,0,0,7.75,0,17.3s7.75,17.3,17.3,17.3,17.3-7.75,17.3-17.3S26.86,0,17.3,0Zm8.76,22.44c0,1.96-1.59,3.55-3.55,3.55h-10.43c-1.96,0-3.55-1.59-3.55-3.55v-10.27c0-1.96,1.59-3.55,3.55-3.55h10.43c1.96,0,3.55,1.59,3.55,3.55v10.27Z"/>
    </g>
  </g>
</svg>