<?xml version="1.0" encoding="UTF-8"?>
<svg id="Capa_2" data-name="Capa 2" xmlns="http://www.w3.org/2000/svg" viewBox="0 0 700.54 760">
  <defs>
    <style>
      .cls-1 {
        fill: #2b49a1;
      }

      .cls-1, .cls-2, .cls-3, .cls-4, .cls-5, .cls-6 {
        stroke-width: 0px;
      }

      .cls-2 {
        fill: #fff;
      }

      .cls-3 {
        fill: #1e2655;
      }

      .cls-4 {
        fill: #74a6fb;
      }

      .cls-5 {
        fill: #84e7de;
      }

      .cls-6 {
        fill: #fcfdf2;
      }
    </style>
  </defs>
  <g id="TEXTS">
    <g>
      <path class="cls-2" d="m47.4,6.34L4.33,13.15c-1.64.26-2.69,1.87-2.27,3.47l11.03,42.19,10.21,39.08c.61,2.35,3.72,2.86,5.05.82l11.98-18.32c.9-1.37,2.77-1.68,4.06-.68,14.27,11.11,28.54,22.23,42.83,33.31,19.72,15.3,41.46,29.37,59.6,46.51,22.82,21.57,35.2,56.52,14.12,83.88-8.98,11.65-21.05,18.44-36.22,20.35-15.17,1.91-28.58-1.65-40.22-10.7-11.64-9.05-18.45-21.36-20.41-36.92-.73-5.76-.55-11.61.53-17.54,1.08-5.94,2.49-10.91,4.23-14.93,1.74-4.02,3.86-7.9,6.36-11.66,2.5-3.75,4.28-6.24,5.33-7.45l.03-.04c1.29-1.49,1.03-3.77-.56-4.94l-44.74-32.72c-1.1-.8-2.61-.7-3.59.24l-2.36,2.27c-2.77,2.92-5.97,7.32-9.61,13.22-3.64,5.9-7.18,12.66-10.6,20.28-3.43,7.62-6,17.03-7.72,28.23-1.72,11.2-1.83,22.71-.34,34.53,4.36,34.55,19.52,62.18,45.49,82.87,25.96,20.69,54.94,29.02,86.92,24.98,31.98-4.04,57.98-19.3,77.99-45.8,20.01-26.49,27.83-57.02,23.47-91.57-7.89-62.51-62.95-96.47-108.75-131.24-2.69-2.04-30.07-22.87-48.54-36.74-1.18-.89-1.46-2.53-.66-3.77l13.12-20.07c1.33-2.03-.38-4.68-2.78-4.3l-39.89,6.31Z"/>
      <path class="cls-2" d="m669.2,730.32l30.53-31.14c1.16-1.18,1.04-3.11-.25-4.14l-34-27.31-31.49-25.29c-1.89-1.52-4.69-.08-4.55,2.35l1.3,21.85c.1,1.63-1.22,3-2.86,2.96-18.08-.42-36.16-.85-54.25-1.23-24.95-.53-50.8,1.12-75.58-1.84-31.18-3.72-61.95-24.41-61.33-58.94.26-14.71,5.92-27.35,16.96-37.93,11.04-10.58,23.93-15.7,38.68-15.37,14.74.33,27.54,6.16,38.39,17.48,4.02,4.19,7.36,8.99,10.03,14.4,2.67,5.41,4.5,10.25,5.5,14.51,1,4.26,1.61,8.65,1.84,13.15.23,4.51.28,7.56.16,9.16v.05c-.15,1.97,1.41,3.64,3.39,3.63l55.43-.39c1.36,0,2.52-.99,2.74-2.34l.54-3.23c.48-3.99.43-9.44-.16-16.35-.59-6.91-1.78-14.44-3.57-22.6-1.79-8.16-5.33-17.25-10.62-27.27-5.29-10.02-12.06-19.33-20.3-27.93-24.09-25.15-52.73-38.3-85.91-39.44-33.18-1.14-61.41,9.44-84.69,31.74-23.28,22.3-35.06,50.05-35.34,83.25-.28,33.2,11.63,62.37,35.72,87.52,43.58,45.49,108.04,39.96,165.54,40.58,3.38.04,37.78.45,60.87.58,1.48,0,2.69,1.16,2.77,2.63l1.42,23.94c.14,2.42,3.09,3.53,4.79,1.79l28.28-28.84Z"/>
      <g>
        <g>
          <ellipse class="cls-3" cx="321.26" cy="378.98" rx="257.51" ry="280.29" transform="translate(-164.74 275.82) rotate(-37.73)"/>
          <ellipse class="cls-1" cx="357.24" cy="384.35" rx="257.51" ry="280.29" transform="translate(-160.5 298.96) rotate(-37.73)"/>
          <ellipse class="cls-6" cx="357.24" cy="384.35" rx="186.6" ry="203.11" transform="translate(-160.5 298.96) rotate(-37.73)"/>
          <ellipse class="cls-1" cx="357.24" cy="384.35" rx="117.56" ry="127.96" transform="translate(-160.5 298.96) rotate(-37.73)"/>
          <ellipse class="cls-6" cx="357.24" cy="384.35" rx="45.72" ry="49.76" transform="translate(-160.5 298.97) rotate(-37.73)"/>
        </g>
        <polygon class="cls-5" points="592.84 219.89 584.5 204.71 584.21 138.83 504.41 197.54 493.22 272.57 502.53 287.03 560.52 305.06 654.81 234.61 592.84 219.89"/>
        <path class="cls-4" d="m355.98,392.83c-2.17-.32-4.21-1.47-5.62-3.36-2.83-3.8-2.04-9.18,1.77-12l235.67-175.21c3.8-2.82,9.18-2.04,12,1.77,2.83,3.8,2.04,9.18-1.77,12l-235.67,175.21c-1.91,1.42-4.21,1.92-6.38,1.6Z"/>
      </g>
    </g>
  </g>
</svg>