<?xml version="1.0" encoding="UTF-8"?>
<svg id="Capa_2" data-name="Capa 2" xmlns="http://www.w3.org/2000/svg" viewBox="0 0 133.14 34.6">
  <defs>
    <style>
      .cls-1 {
        fill: #1e2655;
        stroke-width: 0px;
      }
    </style>
  </defs>
  <g id="TEXTS">
    <path class="cls-1" d="m17.3,0C7.75,0,0,7.75,0,17.3s7.75,17.3,17.3,17.3,17.3-7.75,17.3-17.3S26.86,0,17.3,0Zm4.15,17.3h-2.87v9.65h-3.86v-9.65h-1.93v-3.86h1.91v-1.74c0-1.58.75-4.05,4.06-4.05h2.98v3.32h-2.17c-.35,0-.85.18-.85.93v1.54h3.07l-.35,3.86Z"/>
    <path class="cls-1" d="m115.83,0c-9.56,0-17.3,7.75-17.3,17.3s7.75,17.3,17.3,17.3,17.3-7.75,17.3-17.3S125.39,0,115.83,0Zm7.39,13.6c0,.16.01.32.01.48,0,.74-.09,1.5-.26,2.25-.48,2.14-1.64,4.23-3.42,5.79-1.77,1.54-4.15,2.56-7.09,2.56-2.14,0-4.13-.62-5.8-1.67.3.03.6.05.9.05,1.75,0,3.36-.58,4.65-1.56.02-.01,0-.04-.01-.04-1.61-.05-2.97-1.11-3.46-2.55,0-.02,0-.03.02-.03.22.04.45.06.68.06.34,0,.68-.05,1-.13-1.28-.25-2.3-1.14-2.78-2.3-.19-.47-.25-1.2-.26-1.36,0-.02.02-.02.03-.02.48.26,1.03.42,1.6.45.02,0,.03-.03.01-.04-.98-.67-1.62-1.79-1.62-3.06,0-.67.18-1.3.5-1.85,0-.01.03-.01.03,0,1.87,2.24,4.65,3.72,7.78,3.87-.06-.27-.1-.56-.1-.85,0-2.06,1.7-3.73,3.78-3.73,1.09,0,2.08.45,2.76,1.18.81-.16,1.57-.44,2.27-.83.05-.03.1.02.08.07-.3.81-.88,1.48-1.61,1.91.7-.08,1.36-.25,1.99-.51.05-.02.1.04.07.09-.49.68-1.09,1.28-1.77,1.76Z"/>
    <g>
      <path class="cls-1" d="m71.78,9.91h-10.43c-1.24,0-2.25,1.01-2.25,2.25v10.27c0,1.24,1.01,2.25,2.25,2.25h10.43c1.24,0,2.25-1.01,2.25-2.25v-10.27c0-1.24-1.01-2.25-2.25-2.25Zm-5.21,12.62c-2.88,0-5.23-2.34-5.23-5.23s2.35-5.23,5.23-5.23,5.23,2.35,5.23,5.23-2.35,5.23-5.23,5.23Z"/>
      <path class="cls-1" d="m66.57,13.34c-2.18,0-3.96,1.78-3.96,3.96s1.78,3.96,3.96,3.96,3.96-1.78,3.96-3.96-1.78-3.96-3.96-3.96Z"/>
      <path class="cls-1" d="m66.57,0c-9.56,0-17.3,7.75-17.3,17.3s7.75,17.3,17.3,17.3,17.3-7.75,17.3-17.3S76.12,0,66.57,0Zm8.76,22.44c0,1.96-1.59,3.55-3.55,3.55h-10.43c-1.96,0-3.55-1.59-3.55-3.55v-10.27c0-1.96,1.59-3.55,3.55-3.55h10.43c1.96,0,3.55,1.59,3.55,3.55v10.27Z"/>
    </g>
  </g>
</svg>